<?xml version="1.0" encoding="UTF-8" standalone="no"?>
<!-- Generator: Adobe Illustrator 15.0.0, SVG Export Plug-In . SVG Version: 6.00 Build 0)  -->

<svg
   xmlns:dc="http://purl.org/dc/elements/1.1/"
   xmlns:cc="http://creativecommons.org/ns#"
   xmlns:rdf="http://www.w3.org/1999/02/22-rdf-syntax-ns#"
   xmlns:svg="http://www.w3.org/2000/svg"
   xmlns="http://www.w3.org/2000/svg"
   xmlns:sodipodi="http://sodipodi.sourceforge.net/DTD/sodipodi-0.dtd"
   xmlns:inkscape="http://www.inkscape.org/namespaces/inkscape"
   version="1.1"
   x="0px"
   y="0px"
   width="580px"
   height="580px"
   viewBox="0 0 580 580"
   enable-background="new 0 0 580 580"
   xml:space="preserve"
   id="svg2"
   inkscape:version="0.92.3 (2405546, 2018-03-11)"
   sodipodi:docname="base.svg"><metadata
   id="metadata25"><rdf:RDF><cc:Work
       rdf:about=""><dc:format>image/svg+xml</dc:format><dc:type
         rdf:resource="http://purl.org/dc/dcmitype/StillImage" /><dc:title></dc:title></cc:Work></rdf:RDF></metadata><defs
   id="defs23">
	
	
</defs><sodipodi:namedview
   pagecolor="#ffffff"
   bordercolor="#666666"
   borderopacity="1"
   objecttolerance="10"
   gridtolerance="10"
   guidetolerance="10"
   inkscape:pageopacity="0"
   inkscape:pageshadow="2"
   inkscape:window-width="1249"
   inkscape:window-height="910"
   id="namedview21"
   showgrid="false"
   inkscape:zoom="0.84"
   inkscape:cx="290"
   inkscape:cy="290"
   inkscape:window-x="379"
   inkscape:window-y="95"
   inkscape:window-maximized="0"
   inkscape:current-layer="svg2" />
<g
   id="Layer_2">
	<g
   id="g1327">
		<path
   id="path1329"
   fill="#111111"
   stroke="#EEEEEE"
   stroke-width="3.408"
   d="M66.275,1.768    c-41.335,0-64.571,21.371-64.571,65.036v450.123c0,40.844,20.894,62.229,62.192,62.229H515.92    c41.307,0,62.229-20.316,62.229-62.229V66.804c0-42.601-20.923-65.036-63.522-65.036C514.624,1.768,66.133,1.625,66.275,1.768z" />
	</g>
</g>

<g
   id="g3052"
   transform="matrix(1.2544972,0,0,1.2544972,-176.93831,-129.92525)"><path
     d="m 538.02743,357.39813 c -6.253,-24.655 -1.76,-48.281 -5.185,-68.42 -13.233,-77.776 -70.415,-134.655 -171.055,-125.43799 -44.566,4.07899 -83.091,26.93799 -102.63,53.90499 -18.319,25.288 -22.816,58.976 -44.579,88.119 -5.357,7.175 -15.08,11.41 -17.624,20.733 66.108,0.304 119.579,4.791 172.092,21.77 23.854,7.715 48.101,17.144 72.566,24.88 32.127,10.162 74.394,21.382 105.739,10.369 -1.087,-10.938 -7.262,-17.776 -9.324,-25.918 z m -41.3,-44.864 h -88.5 v -44.5 h 88.5 z"
     id="path9"
     inkscape:connector-curvature="0"
     style="clip-rule:evenodd;fill:#ffffff;fill-rule:evenodd" /><g
     id="g27"
     style="opacity:0.75"
     transform="translate(82.227432,-28.465865)"><path
       d="m 187.433,339.016 c -3.269,12.887 -5.418,26.128 -7.133,39.297 -3.337,25.635 -4.645,52.117 -0.023,77.675 2.667,14.748 8.063,28.468 15.373,41.521 6.88,12.287 15.193,24.067 27.699,31.098 12.156,6.833 26.386,8.253 40.066,7.092 20.129,-1.707 40.198,-8.002 57.951,-17.558 46.177,-24.854 75.254,-76.014 82.979,-126.929 0.141,-0.927 0.272,-1.855 0.377,-2.787 0.141,-1.254 -1.415,-3.723 -1.902,-4.721 -1.236,-2.535 -2.602,-5.011 -4.051,-7.43 -0.385,-0.642 -4.79,-7.339 -4.938,-6.023 -1.468,13.07 -6.229,29.077 -11.267,42.254 -11.071,28.96 -28.874,55.515 -53.564,74.555 -15.372,11.854 -33.194,20.128 -51.916,25.089 -16.383,4.341 -34.17,6.838 -50.853,2.696 -11.175,-2.774 -22.344,-10.096 -28.545,-18.482 -1.269,-1.716 -1.39,-2.052 -0.506,-0.611 -1.333,-2.17 1.284,2.288 0.034,0.057 2.317,4.138 -0.85,-1.828 0.918,1.714 -0.123,-0.246 -1.136,-2.444 -0.301,-0.61 -0.304,-0.668 -0.591,-1.343 -0.877,-2.019 -0.351,-0.827 -0.952,-2.458 -1.475,-3.946 -2.094,-5.956 -3.499,-12.129 -4.588,-18.34 -4.41,-25.146 -2.969,-51.326 0.354,-76.514 1.677,-12.711 3.798,-25.493 6.954,-37.933 0.681,-2.685 -3.225,-7.975 -4.426,-10.11 -1.268,-2.256 -2.599,-4.491 -4.086,-6.611 0.209,0.297 -2.153,-2.818 -2.254,-2.424 z"
       id="path29"
       inkscape:connector-curvature="0"
       style="fill:#ffffff" /></g><rect
     x="408.22742"
     y="268.04211"
     width="88.5"
     height="44.5"
     id="rect31"
     style="clip-rule:evenodd;opacity:0.66000001;fill:#ffffff;fill-rule:evenodd" /><polygon
     points="378.598,330.248 370.25,325.859 361.901,330.248 363.496,320.952 356.742,314.369 366.076,313.012 370.25,304.554 374.424,313.012 383.758,314.369 377.004,320.952 "
     id="polygon33"
     style="clip-rule:evenodd;fill:#ffffff;fill-rule:evenodd"
     transform="translate(82.227432,-28.465865)" /></g></svg>