<?xml version="1.0" encoding="UTF-8" standalone="no"?>
<!-- Generator: Adobe Illustrator 15.0.0, SVG Export Plug-In . SVG Version: 6.00 Build 0)  -->

<svg
   xmlns:dc="http://purl.org/dc/elements/1.1/"
   xmlns:cc="http://creativecommons.org/ns#"
   xmlns:rdf="http://www.w3.org/1999/02/22-rdf-syntax-ns#"
   xmlns:svg="http://www.w3.org/2000/svg"
   xmlns="http://www.w3.org/2000/svg"
   xmlns:sodipodi="http://sodipodi.sourceforge.net/DTD/sodipodi-0.dtd"
   xmlns:inkscape="http://www.inkscape.org/namespaces/inkscape"
   version="1.1"
   x="0px"
   y="0px"
   width="580px"
   height="580px"
   viewBox="0 0 580 580"
   enable-background="new 0 0 580 580"
   xml:space="preserve"
   id="svg3800"
   inkscape:version="0.48.4 r9939"
   sodipodi:docname="nuclear_explosion_site.svg"><metadata
   id="metadata3813"><rdf:RDF><cc:Work
       rdf:about=""><dc:format>image/svg+xml</dc:format><dc:type
         rdf:resource="http://purl.org/dc/dcmitype/StillImage" /><dc:title></dc:title></cc:Work></rdf:RDF></metadata><defs
   id="defs3811" /><sodipodi:namedview
   pagecolor="#ffffff"
   bordercolor="#666666"
   borderopacity="1"
   objecttolerance="10"
   gridtolerance="10"
   guidetolerance="10"
   inkscape:pageopacity="0"
   inkscape:pageshadow="2"
   inkscape:window-width="1430"
   inkscape:window-height="969"
   id="namedview3809"
   showgrid="false"
   inkscape:zoom="1.89"
   inkscape:cx="143.29284"
   inkscape:cy="395.23195"
   inkscape:window-x="501"
   inkscape:window-y="54"
   inkscape:window-maximized="0"
   inkscape:current-layer="svg3800" />
<g
   id="Layer_1">
	<g
   id="Layer_2">
		<g
   id="g1327">
			<path
   id="path1329"
   fill="#111111"
   stroke="#EEEEEE"
   stroke-width="3.408"
   d="M66.275,1.768     c-41.335,0-64.571,21.371-64.571,65.036v450.123c0,40.844,20.895,62.229,62.192,62.229h452.024     c41.307,0,62.229-20.315,62.229-62.229V66.804c0-42.602-20.923-65.036-63.521-65.036C514.625,1.768,66.133,1.625,66.275,1.768z" />
		</g>
	</g>
</g>

<path
   id="path3084"
   style="color:#000000;fill:#000000"
   inkscape:connector-curvature="0"
   d="m 301.41133,62.064776 c -9.65734,1.193799 -18.71746,5.071732 -28.60054,4.861159 -4.53955,-0.05472 -9.54906,2.354614 -13.30821,-0.982727 -8.61698,-4.197206 -18.04277,-0.03415 -25.79596,3.904504 -11.21999,-0.01491 -22.94474,-0.536319 -33.31844,4.529224 -6.90199,2.334789 -14.03455,3.48011 -20.92814,5.570425 -6.40738,2.65498 -10.70854,8.620312 -17.51799,10.386188 -12.91839,6.906578 -24.48239,16.486791 -33.73492,27.800071 -7.21918,9.05345 -17.83202,16.13028 -21.46123,27.71843 -3.92058,9.57489 -5.35127,20.72157 -1.36689,30.53634 -2.19768,6.95989 -8.505363,15.06577 -3.09761,22.25588 2.26723,3.41006 7.47482,6.07529 5.28413,10.90679 -3.82979,9.08094 -5.81823,19.35301 -2.47289,28.91957 1.31025,8.13036 9.29168,13.39401 17.2831,12.63185 5.02842,-1.03787 4.65584,5.83422 6.40405,8.81689 1.48267,6.20439 6.61188,10.80183 12.87674,11.84553 4.102,1.2048 8.42957,1.90907 12.52857,2.80975 5.5072,8.52785 16.72835,10.92844 26.08167,8.27755 3.45445,-0.88261 6.64369,2.00077 10.25541,1.63993 3.15067,-0.58664 4.88148,1.52365 7.18429,3.17566 7.76619,4.81377 18.5442,3.80063 25.27536,-2.10839 6.33516,3.52392 13.70304,-0.0455 18.5592,-4.4251 3.36899,2.50129 7.66907,0.86228 11.01091,0.13015 1.8954,2.19851 0.45141,7.13206 1.09534,10.33288 0.38491,13.43565 1.33823,26.91296 -0.75692,40.24366 -1.06119,2.72254 0.72127,8.89936 -1.77004,9.89141 -4.0746,-0.47096 -7.89031,2.14529 -11.58315,2.75919 -9.52408,-3.22173 -19.20975,-10.90263 -29.70005,-6.6377 -4.27701,0.22295 -9.30751,-0.15767 -12.33782,3.67019 -1.19222,2.614 -3.30627,2.62782 -5.85671,2.603 -4.31707,-0.18212 -6.4188,4.51482 -10.6719,3.93058 -8.47537,0.90009 -15.54804,12.26368 -8.66779,19.10645 3.12277,2.59842 7.42218,2.31155 10.77685,4.58129 4.26634,1.77154 9.02596,-0.10622 12.65101,-1.77005 4.65425,3.30528 11.30494,1.96821 15.82625,0.41648 5.53769,5.62166 14.59764,5.7511 20.77238,1.09327 3.49352,2.39359 8.2703,1.6321 11.84387,1.43169 1.61536,1.84884 5.95467,1.43702 4.19079,4.91963 -4.10533,24.77059 -8.25081,49.5695 -12.28617,74.36757 -2.1577,0.53457 -4.09525,1.98503 -5.18002,-0.80693 -5.86254,-6.7484 -15.19903,-13.21409 -24.3641,-9.99553 -3.36566,-3.49727 -8.98515,-2.84256 -12.7543,-1.14532 -5.76775,-13.47231 -25.85843,-19.58374 -36.65027,-8.4079 -3.5141,3.18857 -5.61832,7.88147 -6.76781,12.20787 -6.55407,-0.59384 -13.28489,4.71206 -14.83669,11.01091 -10.06134,1.29917 -19.6204,9.99719 -18.16855,20.74572 0.36051,4.61219 3.25855,8.87853 7.49665,10.77685 0.73177,2.6414 0.48335,4.57903 -1.22345,6.79379 -3.96248,7.95161 3.30952,17.64794 11.97381,16.73752 3.14809,0.29585 6.57081,-2.26974 8.58949,1.1713 6.73107,5.02143 15.70881,3.59465 23.24461,1.53582 4.50656,3.34967 10.65856,3.15659 15.72213,2.31663 4.82834,2.30255 10.53862,1.06952 15.04494,-0.83296 5.09672,1.5922 10.72603,0.52678 15.27983,-1.71798 5.71761,2.90745 12.12208,0.82287 17.90866,-0.026 11.27412,4.32898 23.27209,1.5259 34.90605,1.22345 13.32155,2.68405 27.74343,6.10086 41.02332,1.3015 2.20068,-1.13016 4.19163,-2.90237 6.1171,-0.41648 5.48913,3.44854 11.73392,-0.80613 17.5963,1.14532 8.67029,0.9684 19.24972,0.41417 24.8064,-7.31439 2.41559,2.69696 6.37482,2.95318 9.44911,3.46195 6.37165,6.10394 17.20647,5.96042 24.62399,1.90015 3.28211,0.51291 7.09074,1.48842 10.30789,3.14959 8.67028,2.19752 19.59873,3.64012 26.83716,-2.83723 2.5237,-1.76663 1.5329,-6.20664 5.206,-6.16907 9.99553,-4.21404 17.25395,-14.84003 15.5922,-25.90009 -0.72089,-6.02072 -3.16642,-13.08581 -9.03263,-15.56637 0.86328,-12.84342 -9.57572,-26.35488 -22.77648,-26.70639 -2.95193,-6.94481 -11.93633,-9.87475 -18.79326,-7.41851 -7.86315,-8.35793 -21.48789,-4.9358 -29.44017,1.50974 -2.5257,1.3324 -3.71417,5.43157 -6.29926,5.62248 -4.31682,-0.71547 -8.59449,1.74272 -10.93261,5.15395 -3.06147,-0.69179 -5.76867,2.25499 -7.96519,2.81124 -4.2122,-2.95784 -9.7598,-2.56518 -14.57681,-1.66592 -1.92781,-23.40703 -4.25835,-46.62748 -4.32099,-70.09865 3.731,-0.49008 6.75106,-3.08987 9.34499,-5.44023 4.60077,0.19146 8.00633,4.40769 12.72847,4.71139 5.20068,1.46776 10.18961,-1.2262 14.88918,-2.83723 9.17423,1.32816 20.62077,3.58031 27.93,-3.61822 5.23266,-5.31853 2.9212,-15.82875 -4.89364,-17.04987 -0.55209,-4.44626 -4.96086,-6.86943 -8.38125,-8.25148 -1.95396,-4.89289 -7.44217,-6.67884 -12.23453,-6.84593 -6.31817,-4.31108 -15.42727,-5.36644 -21.2405,0.39045 -2.35303,2.03475 -4.1728,4.64025 -7.57478,3.51409 -2.97917,0.0332 -5.71253,1.19847 -7.93911,-1.32757 -3.06488,-0.5476 -3.88593,-2.19202 -3.19799,-5.25757 1.35723,-17.17898 -0.11552,-36.06637 0.80323,-52.13834 5.7401,4.19995 14.03872,5.88528 20.38172,1.97828 3.58906,2.31788 8.32269,1.491 11.81805,-0.65075 11.11836,3.03581 24.15086,7.63292 35.06265,1.61386 3.18899,-1.94297 5.48521,-5.05133 6.97604,-8.43373 7.0127,5.42424 18.60002,7.97002 25.04047,0.31236 2.01827,-2.31463 3.23972,-5.2424 3.72234,-8.25148 11.62813,-0.83862 25.60938,-5.89236 28.50308,-18.61167 1.16781,-5.1118 0.51417,-10.42117 -0.65075,-15.46142 8.76108,-3.55149 18.05609,-11.42322 16.37268,-21.91686 -0.2609,-4.76879 -3.75382,-8.92185 -5.36219,-12.80678 1.8431,-2.40975 -0.55506,-6.46077 3.43597,-6.95005 9.11592,-4.31049 12.72264,-15.84042 9.00597,-24.96301 -3.94507,-11.64396 -13.05833,-20.85234 -22.25588,-28.37231 -5.8897,-15.29066 -17.70125,-27.91751 -31.02779,-37.14505 -2.99724,-1.50408 -5.77925,-2.928774 -7.13223,-6.221218 -6.81611,-10.065498 -18.96318,-16.141947 -31.15773,-14.969138 -4.7258,-0.0033 -9.72232,1.562468 -13.77051,-1.742471 -7.63458,-3.991298 -15.90372,-7.692476 -24.75476,-6.429458 -9.89057,-0.05797 -19.97106,-1.61003 -29.31022,-4.815513 -5.58084,-2.390597 -11.14502,-6.180569 -17.45053,-5.747429 z" /><path
   id="path3035"
   sodipodi:nodetypes="cssccsscc"
   style="color:#000000;fill:#afafaf;fill-opacity:1"
   inkscape:connector-curvature="0"
   d="m 259.30517,253.72072 c 0,0 2.75468,64.27626 1.83642,67.94878 -0.91825,3.67294 -4.03819,47.67534 -5.50936,56.01245 -2.75469,15.60968 -16.52845,100.08857 -16.52845,100.08857 l 84.47889,-0.91826 c 0,0 -6.42763,-74.37673 -6.42763,-79.88594 0,-5.50937 -1.83643,-61.52165 -0.91825,-66.11293 0.91825,-4.59111 0,-76.21341 0,-76.21341 z" /><path
   id="path3069"
   sodipodi:nodetypes="ccssscccc"
   style="color:#000000;fill:#afafaf;fill-opacity:1"
   inkscape:connector-curvature="0"
   d="m 256.88125,359.64002 c -0.0674,0.38199 -0.57296,16.37018 -1.53889,19.75533 3.32384,-0.57452 5.09663,-3.98788 10.2729,-1.79603 3.46503,1.46718 6.01814,-0.42966 11.67061,0.65075 7.20328,1.37688 3.91367,1.7224 13.11081,-0.53581 8.04823,-1.97612 11.71309,0.90901 16.07281,-2.25649 6.17973,-2.31913 9.83393,-0.74443 10.30372,5.21308 -0.29355,-11.35492 -1.15107,-15.70047 -1.25593,-26.40319 z" /><path
   id="path3037"
   sodipodi:nodetypes="ssssasssssssssssssssscssssssssscscsssssssssss"
   style="color:#000000;fill:#afafaf;fill-opacity:1"
   inkscape:connector-curvature="0"
   d="m 255.86504,350.36084 c -4.20162,-1.98345 -6.19806,-2.52513 -13.54394,1.14782 -2.5397,1.26984 -7.57545,-1.37739 -9.87059,-2.066 -2.29556,-0.68866 -12.62602,-7.57544 -19.05314,-5.2798 -6.42763,2.29555 -6.72366,-0.046 -9.64153,1.37738 -2.48055,1.21004 -3.44337,5.9685 -5.96849,5.73893 -2.52512,-0.22955 -7.11632,-0.68866 -7.80501,1.14782 -0.68867,1.83643 -3.23297,2.21451 -7.11632,2.52512 -5.73893,0.45912 -8.4937,7.34589 -4.13207,7.57545 4.83584,0.25452 7.11632,5.73893 13.77384,0.68868 2.23242,-1.69358 4.82068,-4.59112 5.27981,-2.98425 0.45911,1.60694 0.79731,4.26426 3.9025,4.59111 8.7236,0.91826 6.42763,-4.36155 8.95266,-4.36155 2.52512,0 5.02651,6.3819 11.01841,7.34588 3.87293,0.62302 8.4937,-4.13207 11.0184,-4.13207 2.52513,0 1.94913,2.35212 6.65719,2.52512 4.36922,0.16059 2.52512,-3.44337 4.59112,-3.21381 2.06599,0.22957 3.47777,7.37004 12.85508,5.9685 5.49621,-0.82144 5.27981,-6.19806 9.64152,-5.9685 4.36163,0.22957 5.50937,-0.22955 10.55945,1.83643 5.05024,2.06599 16.06864,1.37738 17.67626,0.45912 1.60694,-0.91826 7.80492,-1.60695 7.80492,-1.60695 0,0 0.68868,2.75469 4.13207,2.52512 3.44338,-0.22955 6.19806,-4.13207 7.80493,-3.67294 1.60695,0.45911 4.13207,6.88676 8.26405,6.19806 4.13207,-0.68867 5.73893,-5.50937 8.4937,-5.50937 2.75469,0 5.73894,0 8.03449,1.37739 2.29556,1.37738 7.11632,4.13207 11.01841,3.67294 3.9025,-0.45911 7.11631,-3.44338 10.55944,-3.21381 3.44338,0.22955 11.93716,2.75468 19.9719,0.45911 4.02787,-1.15082 5.13404,-6.68918 1.14782,-7.11632 -6.42762,-0.68868 -7.80492,2.06599 -7.80492,2.06599 0,0 7.11631,-10.10048 -1.60695,-9.87058 -4.18763,0.1102 -4.13207,0.68866 -4.13207,0.68866 0,0 4.13207,-8.03449 -5.73893,-7.57544 -2.52238,0.11732 -8.7236,-6.19806 -14.00291,-2.98425 -5.2798,3.21381 -9.60404,9.63486 -9.87058,8.26405 -0.4802,-2.46189 -10.07966,-1.89915 -11.93716,0.68868 -0.55189,0.76894 -2.02801,-6.35799 -7.11632,-4.59111 -7.61476,2.64406 -6.88675,7.11631 -8.26405,7.11631 -1.37739,0 -0.95175,-3.95556 -5.50937,-2.52512 -5.44215,1.70799 -6.88676,5.73894 -9.64153,5.73894 -2.75468,0 -7.805,-3.67294 -9.87058,-5.27981 -2.06599,-1.60695 -12.39612,-4.59111 -20.20097,0.22956 -7.805,4.82067 -7.96827,1.11491 -10.33038,0 z" /><path
   id="path3039"
   sodipodi:nodetypes="cssccsscscssccscscscscscscsssssccccscssscsscsscscscscscssssssscssssc"
   style="color:#000000;fill:#afafaf;fill-opacity:1"
   inkscape:connector-curvature="0"
   d="m 228.13577,460.22836 c 0.60916,-2.07115 -16.79998,-21.37877 -22.40081,-7.79143 -1.2247,2.97134 -1.62319,-6.16824 -5.51895,-6.49284 -3.89576,-0.32464 -8.11612,5.19434 -8.11612,5.19434 l -2.92178,-1.62319 c 0,0 -0.64928,-11.68727 -12.661,-15.58303 -12.01172,-3.89576 -18.43759,6.2627 -19.15393,12.01213 -0.5037,4.04227 -0.9739,9.73897 -0.9739,9.73897 0,0 -5.69987,-6.27228 -9.0901,-4.22036 -12.33615,7.46683 2.59717,10.06383 2.59717,10.06383 0,0 -15.80626,-2.04442 -22.72484,5.19435 -3.61705,3.78414 -3.57107,10.06383 -0.97389,12.33615 2.59717,2.27248 8.11612,3.24646 8.11612,3.24646 -4.07785,4.20895 -2.37011,6.48935 1.29858,8.11612 0,0 -8.44039,5.19426 -5.19434,10.38869 3.24646,5.19434 14.93332,-0.32465 14.93332,-0.32465 0,0 0.77795,7.72729 11.36242,7.14214 6.34183,-0.3506 18.50505,-4.54497 18.50505,-4.54497 0,0 -6.57522,3.4986 -1.94787,4.86966 8.76524,2.59717 10.71354,-2.92178 10.71354,-2.92178 0,0 -0.9654,3.58448 4.22036,4.22036 5.57875,0.68409 7.46683,-2.92177 7.46683,-2.92177 0,0 5.75742,1.87957 9.0901,1.62319 4.22036,-0.32465 8.44039,-3.89576 8.44039,-3.89576 0,0 3.57107,3.57107 8.76525,2.92178 3.75673,-0.46959 9.41495,-1.94788 9.41495,-1.94788 0,0 7.79143,3.24646 16.23191,2.92177 8.44039,-0.32464 17.53049,-2.27248 23.04969,-0.64929 5.51895,1.62319 24.02342,5.19434 33.76323,1.29859 2.3542,-0.94166 6.81754,-4.22037 8.76525,-3.24647 1.94788,0.9739 3.24646,4.54505 7.14214,3.57107 3.89575,-0.9739 7.14214,-0.64929 7.14214,-0.64929 11.67727,1.61336 21.4629,1.33524 23.6994,-6.49285 l 7.79143,-0.64928 c 3.46287,5.88153 6.92573,2.20709 10.38869,3.24646 0,0 -0.64929,5.19435 9.41495,5.19435 10.06424,0 10.06383,-5.84356 10.06383,-5.84356 0,0 3.89576,4.22037 7.46683,4.22037 3.57107,0 3.24647,2.27248 10.06383,3.24646 6.81754,0.9739 15.58303,0.9739 16.55676,-3.89576 0.9739,-4.86965 1.6232,-5.84355 1.6232,-5.84355 0,0 4.35605,3.3869 12.98585,-6.16824 3.53459,-3.91367 5.13337,-12.85842 0.64929,-20.45252 -2.10373,-3.56282 -10.38869,-1.62319 -10.38869,-1.62319 0,0 4.86966,-3.89576 3.89576,-10.06383 -1.81502,-11.49486 -11.36242,-17.20647 -16.88162,-15.90789 -5.51895,1.29859 -5.51895,2.59717 -5.51895,2.59717 0,0 3.96357,-9.45244 -5.51894,-11.03756 -8.73443,-1.4601 -7.14214,8.11612 -7.14214,8.11612 0,0 -1.97329,-13.30155 -12.01213,-12.33615 -16.5476,1.59121 -19.15393,15.90789 -19.15393,15.90789 0,0 -1.62319,-4.22037 -5.84356,-3.89576 -4.22036,0.32464 -4.86965,8.11612 -4.86965,8.11612 0,0 -1.94788,-2.59717 -4.54505,-2.92178 -2.59717,-0.32464 -8.11612,8.76525 -8.11612,8.76525 0,0 -0.98515,-7.65341 -5.84356,-8.11612 -13.63473,-1.29859 -12.661,7.79143 -14.28444,8.76524 -1.62319,0.9739 -2.59717,-5.51894 -11.68727,-1.29858 -3.35734,1.55872 -8.11612,9.73898 -10.38869,10.06383 -2.27248,0.32464 -1.07085,-3.88118 -5.51895,-4.86965 -14.6093,-3.24647 -17.20647,2.92177 -20.12766,1.62319 -2.92178,-1.29859 -3.23297,-11.2683 -9.0901,-11.68728 -12.3095,-0.88052 -12.98586,8.11612 -12.98586,8.11612 0,0 -0.64929,-3.89575 -2.92178,-3.57107 -2.27248,0.32465 -3.89576,3.57107 -5.19426,3.57107 -1.29859,0 0,-2.92177 -3.89576,-3.89575 -3.89575,-0.9739 -6.81753,1.94787 -8.44039,2.92177 -1.62319,0.9739 -3.57107,-1.94788 -3.57107,-1.94788 z" /><path
   id="path3041"
   sodipodi:nodetypes="csassssascsscscccccccccccccccsssssssscsssssc"
   style="color:#000000;fill:#afafaf;fill-opacity:1"
   inkscape:connector-curvature="0"
   d="m 170.80308,94.675191 c -12.98586,2.597172 -35.71069,24.673129 -37.00928,27.919179 -1.29858,3.24647 -15.70381,13.96126 -19.47879,23.37455 -3.55291,8.85937 -6.49284,18.1802 -1.94788,28.56889 1.58305,3.61829 -5.19434,13.63473 -5.19434,17.53049 0,3.89576 7.26267,6.97221 7.79143,12.98586 0.96974,11.02923 -8.44039,14.93332 -2.59717,33.11352 3.02631,9.41496 12.90756,3.37357 17.53049,7.79143 4.54855,4.34647 5.19435,14.28445 8.4404,16.88162 3.24646,2.59717 20.12766,5.19426 20.12766,5.19426 0,0 3.24646,7.14214 10.38869,8.44039 7.14214,1.29859 14.28444,-2.59717 16.2319,-0.64929 1.94788,1.94788 12.98586,1.94788 12.98586,1.94788 0,0 1.29859,5.19434 10.38869,5.84355 9.0901,0.64929 13.63473,-8.44039 13.63473,-8.44039 3.49961,4.47158 6.89067,9.16007 18.82908,-3.24647 3.16692,1.55922 5.62582,7.36654 10.38869,-0.64928 2.52829,8.33044 22.85728,0.75991 18.1802,-10.38869 9.11593,16.61424 34.17638,5.87496 35.7107,1.94788 1.52232,8.69861 8.48953,7.86781 16.88161,4.54497 -0.63055,5.96375 17.04072,19.88194 23.37455,3.89576 2.59409,2.0814 -0.54481,11.04256 9.73898,3.89575 29.89829,9.89391 34.30632,3.85653 37.00928,-3.24646 l 2.59717,-7.79143 c 22.86477,22.02764 27.99748,1.7328 24.02342,-2.59718 41.00749,-0.74555 28.48226,-23.41369 27.91918,-31.81493 17.37806,-6.46911 24.31413,-14.36108 9.0901,-30.51635 5.00227,-2.46998 5.79308,-5.54161 -1.29858,-9.73898 36.31875,-4.672 8.74525,-37.8639 -4.54497,-45.45051 -2.59717,-13.63473 -22.72484,-34.41211 -33.11352,-38.30786 -3.43905,-1.28968 -4.54497,-10.388691 -17.5305,-16.231911 -7.15438,-3.219477 -20.77737,-0.649293 -23.37454,-1.298586 -2.59717,-0.649285 -14.93332,-7.791432 -20.12767,-8.440392 -5.19434,-0.649293 -8.44039,0.649285 -18.1802,-0.649293 -9.73898,-1.298585 -17.53049,-3.246464 -19.47879,-3.895757 -1.94788,-0.649285 -9.0901,-4.544967 -13.63473,-5.843553 -4.54497,-1.298586 -14.93332,3.246464 -22.72484,3.895757 -7.79143,0.649293 -22.07596,1.947879 -22.07596,1.947879 0,0 -1.94788,-3.895758 -8.44039,-3.895758 -6.49285,0 -11.03756,3.895758 -14.93332,5.194344 -3.89576,1.298586 -8.44039,0 -18.1802,0.649285 -9.73898,0.649292 -12.33615,3.246464 -17.5305,4.54505 -5.19426,1.298586 -10.38868,3.246465 -15.58303,3.895758 -5.19426,0.649284 -14.28444,9.090101 -14.28444,9.090101 z" /><path
   id="path3062"
   sodipodi:nodetypes="cscsccsccccccccccccccscsssccscscssssscscscsssc"
   style="color:#000000;fill:#c8c8c8;fill-opacity:1"
   inkscape:connector-curvature="0"
   d="m 124.70703,136.2316 c 0,0 -13.63473,12.33615 -10.38868,20.12767 3.24646,7.79143 12.33614,11.68727 12.33614,11.68727 0,0 -10.38868,5.84356 -10.38868,14.28445 0,8.44039 9.73897,9.0901 9.73897,9.0901 l 7.14214,4.54497 c 0,0 -12.33615,9.0901 -5.19434,16.88161 7.14214,7.79143 14.93332,14.93332 24.67313,7.14214 -0.002,22.04931 9.39996,19.91942 21.42625,11.03756 14.94415,15.24235 26.98377,9.75814 29.21777,-3.89575 3.10911,21.01393 21.25799,16.16527 18.82908,3.89575 7.21244,5.89753 13.98791,7.42202 19.47878,-3.89575 -0.64749,20.41337 17.02406,12.33115 31.16607,9.73897 18.64915,12.20788 25.23371,5.01768 27.91918,-8.44039 3.13776,8.06348 6.38781,14.43521 12.98585,10.38869 1.94788,5.19426 11.03757,5.19426 9.73898,-5.19434 9.90557,22.70901 32.68205,11.0184 33.76323,-0.6493 l 4.54505,-5.84355 c 14.20449,9.64818 22.60739,-1.05236 26.6206,-11.03756 1.69599,20.44335 20.86067,17.42637 24.67313,6.49284 9.69733,2.55553 15.76795,1.48326 11.68727,-9.73898 0,0 13.63474,9.73898 21.42625,5.84356 7.79144,-3.89576 -2.59717,-25.97172 -2.59717,-25.97172 0,0 0.64929,-3.24646 3.24647,-5.19434 2.59718,-1.94788 14.28444,-1.94788 15.58303,-4.54497 1.29858,-2.59717 -0.64929,-23.37455 -3.89576,-26.62059 -3.24647,-3.24647 -11.03756,-9.73898 -11.03756,-9.73898 l -2.59718,-5.84355 c 0,0 -6.49284,-15.58304 -11.68727,-18.82908 -5.19426,-3.24647 -18.82908,-12.33615 -18.82908,-12.33615 0,0 -13.63473,-12.336152 -18.1802,-14.933324 -4.54497,-2.597172 -13.63473,-3.246465 -13.63473,-3.246465 0,0 -10.04718,-0.799101 -14.93333,-1.947878 -6.46294,-1.519238 -10.38868,-7.791432 -18.82907,-6.492847 -8.4404,1.298586 -9.82311,-1.642348 -14.93333,-2.597171 -9.05095,-1.691077 -24.67313,-5.843553 -25.97171,-7.791432 -1.29859,-1.947879 -8.44039,-1.298586 -18.18021,1.298586 -9.73897,2.597171 -29.21776,3.895757 -29.21776,3.895757 0,0 1.29859,-3.895757 -8.44039,-3.246464 -9.73898,0.649284 -14.28445,5.843553 -14.28445,5.843553 0,0 -22.07596,-1.298586 -27.91918,0 -5.84355,1.298586 -27.91918,12.336149 -27.91918,12.336149 0,0 -18.82908,9.090106 -23.37454,11.037566 -4.54505,1.94788 -10.38869,9.0901 -14.28445,12.33615 -3.89575,3.24646 -5.84355,11.68727 -9.0901,14.93332 -3.24646,3.24646 -10.38868,5.19434 -10.38868,5.19434 z" /><path
   id="path3076"
   style="color:#000000;fill:#c8c8c8;fill-opacity:1"
   inkscape:connector-curvature="0"
   d="m 351.07246,340.84842 c -3.54858,0.1953 -6.96139,5.3407 -8.38126,5.90886 -1.62319,0.64929 -2.83764,5.28372 -5.83072,2.29064 -2.27248,-2.27248 -8.13336,0.16204 -10.56861,2.75918 0,0 -0.78968,-5.68828 -4.6854,-6.01297 -3.89576,-0.32465 -7.1583,3.25371 -7.1583,3.25371 0,0 -1.12225,4.37304 -2.42075,4.37304 -1.29859,0 -1.62119,-3.5769 -4.86766,-2.603 -3.24646,0.9739 -5.84888,0.82185 -8.12136,4.5553 0,0 -4.2516,1.00705 -6.50751,0.49457 -2.49047,-0.56583 -4.20895,-2.77443 -6.48144,-3.74833 -2.27248,-0.97389 -4.81068,-3.56607 -8.12136,-3.56607 -5.6813,0 -7.94795,1.30442 -11.84387,2.603 -3.89576,1.29859 -7.29424,2.58926 -9.89141,2.26466 -2.59717,-0.32465 -0.27029,-3.01774 -5.20601,-3.56607 -5.84355,-0.6493 -5.91727,2.2664 -9.57905,2.26465 -3.31959,-0.002 -6.21697,-0.32206 -10.22959,-1.95229 -5.19434,-2.11023 -9.57238,-5.84306 -12.49441,-5.51837 -2.92178,0.32465 -13.48397,1.3015 -13.48397,1.3015 -4.54505,2.92178 -5.33611,6.32534 -5.33611,6.32534 0,0 -6.32825,-1.43952 -7.62676,0.83296 -1.29858,2.27248 3.22773,2.57702 3.22773,2.57702 l 8.45955,-2.96743 c -3.54792,8.98432 6.14658,5.63898 9.39663,3.25371 3.13626,4.99602 12.19121,3.36625 12.33781,-1.95229 1.17481,5.13804 3.69876,5.80949 7.47066,2.29064 2.94951,3.80963 6.57781,2.85156 10.38619,0.65075 -0.76952,5.58884 11.9938,7.95095 16.24273,2.57702 7.79827,1.18072 13.69388,0.65941 16.21692,-2.57702 -0.0206,1.40896 2.70495,4.56305 7.23634,2.86331 1.29234,2.31613 12.03046,1.61694 14.18616,0.36442 6.5205,2.04125 15.15822,-1.60737 13.32737,-2.91537 14.6193,8.19692 12.4461,2.39285 17.85702,2.91537 l 4.86765,-1.61387 c 4.71814,4.63468 13.80133,5.61416 14.60264,-2.91536 2.07557,5.82456 5.10005,6.4522 9.08427,1.92622 2.49913,4.298 9.5449,4.08709 11.37491,1.3015 l 5.18002,-2.26465 c 0,0 3.91091,-3.8402 0.98914,-4.1648 -2.92178,-0.32465 -7.80901,0.31236 -7.80901,0.31236 0,0 2.28481,-5.84597 -0.31236,-6.81987 -2.59717,-0.9739 -5.52128,-1.45918 -6.81987,-2.10839 -1.29858,-0.64929 -5.29871,-2.02576 -7.13222,-2.75918 -0.50726,-0.2029 -1.02888,-0.26217 -1.53582,-0.23427 z m -163.75177,14.75924 c -0.0882,0.009 -0.18487,0.0375 -0.28633,0.078 -1.62319,0.6493 -3.56607,1.3015 -3.56607,1.3015 -3.89576,1.94788 -2.59425,5.51396 1.3015,3.56608 3.6522,-1.8261 3.87419,-5.08123 2.55095,-4.94571 z" /><path
   id="path3080"
   style="color:#000000;fill:#c8c8c8;fill-opacity:1"
   inkscape:connector-curvature="0"
   d="m 173.71012,434.99798 c -9.56573,0 -11.69644,2.84639 -13.82216,11.34909 -2.12571,8.5027 -1.06719,12.05211 -1.06719,12.05211 l -6.01297,4.94571 c 0,0 -21.62117,-0.009 -21.26632,4.24293 0.35428,4.25135 -0.33098,5.68912 3.56607,7.10616 3.89709,1.41711 12.39029,-1.77004 12.39029,-1.77004 0,0 -5.31146,4.95445 -3.54008,7.08016 1.77137,2.12572 15.93037,-5.25806 15.93037,-5.25806 -6.43162,13.40567 23.72272,12.04378 24.80641,8.14735 9.51657,3.90209 10.08132,-1.05219 7.44458,-4.9457 4.3698,5.72502 13.46065,7.60843 14.86336,3.87843 3.77339,7.72796 11.96714,5.69779 19.86111,4.26892 -0.355,9.42912 6.45303,6.80521 13.45732,3.87844 8.03507,7.28282 22.1984,3.75815 24.07756,-2.10839 -1.20371,7.56936 20.74322,4.29749 20.90232,2.47289 10.06716,4.97269 16.017,1.59495 21.96934,-1.77004 -1.09243,4.93246 7.72563,5.82139 14.18616,1.77004 6.41313,2.66023 8.07189,0.27006 7.41851,-4.60727 5.16936,8.06206 12.6077,3.1929 13.82215,0.36442 6.76881,2.41658 5.05924,-1.85067 5.67455,-4.26893 2.00943,8.66779 12.11791,3.82829 12.39029,1.4317 0.21594,1.39571 5.00901,6.54265 7.44459,-1.06719 0.75307,3.80821 1.87749,7.05592 7.44458,3.54008 12.98253,4.12282 15.60219,-0.21048 15.9562,-6.37731 8.30479,5.39 14.90417,6.31534 16.63339,-5.67455 13.89462,2.3213 9.74648,-0.0715 4.97178,-4.65942 4.32798,-0.61827 -0.78176,-4.30632 -1.06719,-4.60727 8.61115,4.01671 15.62718,-1.42986 14.88918,-6.89791 -0.46882,-3.4732 -3.91192,-5.84522 -7.80901,-7.26242 -3.89709,-1.41712 -9.91723,1.0412 -9.91723,1.0412 0,0 2.12405,-7.97393 -4.60728,-10.09965 -6.73132,-2.12572 -6.74181,7.62676 -6.74181,7.62676 0,0 -6.70251,-10.86265 -13.7955,-10.98509 -10.27374,-0.17715 -17.19981,8.68528 -17.90866,13.82215 -2.54211,0.5391 -3.52284,-3.71217 -5.64847,-3.35783 -2.12572,0.35428 -6.03897,7.96519 -6.03897,7.96519 0,0 -0.52802,-3.71792 -4.4251,-2.65507 -3.89708,1.06286 -7.08017,9.73565 -7.08017,9.73565 0,0 -4.47341,-9.40829 -8.85021,-9.73565 -10.10464,-0.75407 -8.15043,9.74564 -10.98508,10.09965 -2.83424,0.35429 -0.71326,-5.67588 -7.44459,-3.9045 -6.73133,1.77137 -15.22736,12.7543 -15.22736,12.7543 0,0 -2.54344,-5.65689 -7.10615,-6.37732 -10.09715,-1.59429 -19.83446,1.77004 -19.83446,1.77004 0,0 -4.05944,-10.80183 -8.85021,-11.50485 -9.15174,-1.34448 -12.7543,8.66779 -12.7543,8.66779 0,0 -1.70374,-3.05172 -3.20173,-3.17567 -2.02485,-0.16757 -4.94571,3.54009 -4.94571,3.54009 0,0 -1.96812,-4.06435 -3.9045,-4.60727 -3.23614,-0.90752 -9.55323,3.17566 -9.55323,3.17566 0,0 -8.24156,-10.10631 -14.52517,-13.45732 -7.97127,-4.25134 -10.98509,3.90451 -10.98509,3.90451 0,0 -2.41566,-5.55877 -4.97177,-6.03897 -3.3256,-0.62473 -8.85021,4.97178 -8.85021,4.97178 0,0 -7.79643,-18.42926 -17.36223,-18.42926 z m -25.61355,17.93448 c -1.01305,0.0581 -1.93097,0.54831 -2.55094,1.74405 -1.49267,2.87872 1.77879,2.82141 3.9045,3.17567 2.12572,0.35427 5.67455,-1.40563 5.67455,-1.40563 0,0 -3.98905,-3.68843 -7.02811,-3.51409 z" /><path
   id="path3930"
   sodipodi:nodetypes="cccccccccccccccccccccccccccccccccccccccc"
   style="color:#000000;fill:#e1e1e1;fill-opacity:1"
   inkscape:connector-curvature="0"
   d="m 156.70106,110.83463 c -9.89475,2.69846 -14.42772,7.45933 -12.04545,14.88001 -16.96908,6.30477 -6.87034,10.15713 -6.37706,14.88001 -1.64444,5.34769 -7.42085,13.44982 4.25134,9.91973 -15.33231,7.15814 0.67115,3.21423 1.45494,8.67612 -9.41413,10.88014 -5.43616,24.91053 15.58802,19.13145 -0.10108,10.32455 3.49969,5.84105 7.08559,1.41711 -6.03106,9.99303 7.99359,10.54862 17.00572,13.46231 5.87321,17.02322 31.17106,8.25198 36.13634,2.12572 11.4049,3.74224 7.87306,-3.45504 9.21088,-7.08558 9.69567,12.88924 26.85716,5.65256 26.21661,-7.79418 7.22493,-1.31416 16.15111,-0.8141 9.21088,-7.79418 15.0466,6.88842 20.1993,5.10946 17.56964,-3.10811 4.17972,8.22407 9.52158,9.47576 15.58803,6.37706 1.37247,4.21037 0.74939,9.39247 18.42259,5.66847 -5.90544,8.04323 1.22479,3.88426 9.21172,4.95995 7.69864,21.56868 10.50113,3.73458 15.05743,1.88257 3.41647,0.56119 8.31253,2.84856 6.37706,-2.83423 10.23209,8.4154 20.41754,20.61161 25.45778,4.33731 16.8433,3.96273 17.79871,-0.51999 13.46232,-10.62858 22.15759,2.19035 27.10787,-9.5499 22.18757,-17.92115 6.75382,5.66022 12.84592,6.35599 17.71375,-2.12572 12.99252,2.39793 13.42566,-5.33211 8.50286,-12.04544 4.8824,-5.56818 5.15295,-7.9118 -0.24314,-14.41439 -2.1991,-11.06339 -9.66818,-14.59764 -18.42259,-16.29688 -7.5398,-15.17071 -9.28502,-10.05967 -13.46232,-13.46231 -6.49767,-2.8254 -8.80939,-12.314493 -21.25716,-5.668466 -1.5284,-2.423333 -1.4017,-5.091223 -10.62857,-6.377064 -16.6334,-4.723471 -21.60451,-3.166834 -26.21661,-1.417116 -0.44764,-4.18971 -3.02307,-6.315842 -9.91973,-4.251349 -9.89974,-8.63114 -38.33869,-9.351651 -34.01062,-7.794181 -13.04167,-5.862128 -16.32187,0.205225 -21.25716,4.251349 -3.50219,-5.766421 -18.90738,-6.453114 -14.88002,0.708566 -15.34896,-11.617304 -24.46822,1.425279 -20.54831,6.377065 -5.29396,-10.910121 -19.10395,-8.938502 -20.54831,-2.125716 -4.07134,-6.861265 -10.89679,-6.696005 -12.04544,2.125716 -2.06641,-4.157308 -16.50845,-3.597891 -11.3366,7.085581 -4.66483,-8.678619 -11.20915,-4.20412 -17.71374,0 -9.20588,-0.07697 -9.85226,2.699209 -7.79418,6.377065 -12.83093,-1.46318 -18.50339,4.41552 -17.00573,8.50286 z" /></svg>